<svg width="411" height="731" viewBox="0 0 411 731" fill="none" xmlns="http://www.w3.org/2000/svg">
<g clip-path="url(#clip0)">
<ellipse cx="310" cy="645.5" rx="207" ry="200.5" fill="#5F85DB"/>
<path d="M201.652 683.614C199.592 683.614 197.922 685.284 197.922 687.345V687.348C197.922 689.407 199.592 691.077 201.652 691.077C203.713 691.077 205.383 689.405 205.383 687.345C205.383 685.284 203.713 683.614 201.652 683.614V683.614Z" fill="#353941"/>
<path d="M370.269 515H340.426C338.365 515 336.695 516.67 336.695 518.73V522.624L331.717 522.594C331.71 522.594 331.701 522.594 331.694 522.594C329.645 522.594 327.977 524.247 327.964 526.299C327.951 528.36 329.61 530.041 331.671 530.054L336.695 530.085V568.789C326.928 574.941 318.111 571.399 308.806 567.651C302.674 565.181 296.33 562.628 290.002 563.422C288.005 563.672 282.617 564.455 276.913 565.283C271.508 566.067 265.918 566.878 263.996 567.12C263.019 567.243 262.044 566.97 261.251 566.354C260.442 565.723 259.926 564.818 259.801 563.804C259.719 563.143 259.502 561.388 264.177 559.218C274.073 554.629 284.619 550.7 293.111 548.44C295.102 547.91 296.287 545.867 295.756 543.875C295.227 541.884 293.184 540.701 291.192 541.23C282.3 543.596 271.309 547.687 261.038 552.45C257.465 554.107 255.269 556.035 253.975 557.979L216.574 568.178C212.64 569.168 210.621 567.601 210.043 565.804C209.475 564.035 210.161 561.755 212.975 560.644C215.902 559.53 222.89 556.453 231.732 552.563C243.451 547.406 258.033 540.987 269.662 536.27C283.481 530.664 287.692 529.818 301.84 529.869H301.852C303.906 529.869 305.575 528.207 305.582 526.151C305.588 524.09 303.923 522.414 301.862 522.408C286.771 522.357 281.535 523.402 266.858 529.356C255.128 534.114 240.49 540.557 228.727 545.733C220.309 549.438 213.038 552.638 210.301 553.679C210.289 553.683 210.278 553.688 210.266 553.692C203.296 556.426 201.305 563.004 202.94 568.088C204.551 573.098 210.088 577.523 218.439 575.403C218.461 575.397 218.482 575.393 218.504 575.386L252.648 566.075C253.254 568.515 254.65 570.67 256.668 572.241C259.036 574.084 261.969 574.894 264.926 574.523C266.919 574.272 272.294 573.491 277.984 572.666C283.403 571.879 289.005 571.066 290.931 570.824C295.34 570.271 300.527 572.359 306.018 574.571C311.837 576.914 318.466 579.585 325.639 579.584C329.201 579.584 332.898 578.919 336.695 577.235V578.418C336.695 580.478 338.365 582.148 340.426 582.148H370.269C372.33 582.148 374 580.478 374 578.418V518.73C374 516.67 372.33 515 370.269 515ZM366.539 574.688H344.156V526.406V526.403C344.156 526.403 344.156 526.4 344.156 526.398V522.461H366.539V574.688Z" fill="#353941"/>
<path d="M355.348 537.386C357.408 537.386 359.078 535.716 359.078 533.655V533.652C359.078 531.593 357.408 529.923 355.348 529.923C353.287 529.923 351.617 531.595 351.617 533.655C351.617 535.716 353.287 537.386 355.348 537.386Z" fill="#353941"/>
<path d="M252.387 636.613C261.239 636.613 269.073 632.18 273.798 625.422H287.58C288.569 625.422 289.518 625.028 290.217 624.329L296.585 617.961H300.957L307.325 624.329C308.025 625.028 308.973 625.422 309.963 625.422H315.805C316.794 625.422 317.743 625.028 318.442 624.329L329.634 613.138C330.333 612.438 330.727 611.489 330.727 610.5V599.309C330.727 597.25 329.057 595.578 326.996 595.578H273.799C269.073 588.82 261.241 584.387 252.387 584.387C237.988 584.387 226.273 596.101 226.273 610.5C226.273 624.899 237.988 636.613 252.387 636.613ZM323.266 603.039V608.955L314.26 617.961H311.509L305.139 611.593C304.44 610.893 303.491 610.5 302.502 610.5H295.041C294.051 610.5 293.103 610.893 292.403 611.593L286.035 617.961H277.409C278.115 615.596 278.5 613.092 278.5 610.5C278.5 607.908 278.115 605.404 277.409 603.039H323.266ZM252.387 591.848C262.672 591.848 271.039 600.215 271.039 610.5C271.039 620.785 262.672 629.152 252.387 629.152C242.102 629.152 233.734 620.785 233.734 610.5C233.734 600.215 242.102 591.848 252.387 591.848Z" fill="#353941"/>
<path d="M244.926 614.23C246.986 614.23 248.656 612.559 248.656 610.499C248.656 608.438 246.986 606.768 244.926 606.768C242.865 606.768 241.195 608.438 241.195 610.499V610.501C241.195 612.562 242.865 614.23 244.926 614.23Z" fill="#353941"/>
<path d="M316.772 529.961H316.774C318.834 529.961 320.503 528.29 320.503 526.231C320.503 524.17 318.831 522.5 316.772 522.5C314.712 522.5 313.042 524.17 313.042 526.231C313.042 528.29 314.712 529.961 316.772 529.961Z" fill="#353941"/>
<path d="M338.561 645.597C338.539 645.603 338.518 645.607 338.496 645.615L304.352 654.925C303.746 652.485 302.35 650.33 300.332 648.759C297.964 646.916 295.031 646.106 292.074 646.477C290.08 646.728 284.706 647.509 279.016 648.334C273.596 649.121 267.995 649.934 266.068 650.176C261.662 650.728 256.473 648.641 250.982 646.429C242.274 642.923 231.748 638.685 220.305 643.761V642.583C220.305 640.523 218.635 638.853 216.574 638.853H186.73C184.67 638.853 183 640.523 183 642.583V702.27C183 704.33 184.67 706 186.73 706H216.574C218.635 706 220.305 704.33 220.305 702.27V698.376L225.283 698.406H225.306C227.355 698.406 229.023 696.753 229.036 694.699C229.049 692.64 227.39 690.959 225.329 690.946L220.305 690.915V652.211C230.072 646.059 238.889 649.601 248.194 653.348C254.328 655.819 260.672 658.372 266.998 657.577C268.996 657.326 274.383 656.545 280.087 655.717C285.492 654.932 291.082 654.122 293.004 653.88C293.981 653.757 294.956 654.028 295.749 654.646C296.559 655.277 297.074 656.182 297.199 657.196C297.281 657.857 297.499 659.613 292.823 661.781C282.927 666.371 272.383 670.3 263.89 672.56C261.899 673.09 260.715 675.133 261.244 677.124C261.774 679.116 263.819 680.298 265.808 679.77C274.7 677.404 285.691 673.313 295.963 668.55C299.535 666.893 301.731 664.965 303.026 663.021L340.426 652.822C344.359 651.831 346.378 653.399 346.957 655.196C347.525 656.965 346.839 659.245 344.027 660.356C341.1 661.47 334.11 664.547 325.266 668.439C313.549 673.596 298.967 680.014 287.338 684.731C273.519 690.336 269.299 691.185 255.16 691.131C255.157 691.131 255.153 691.131 255.148 691.131C253.093 691.131 251.425 692.793 251.418 694.849C251.412 696.91 253.077 698.586 255.138 698.592C255.442 698.593 255.743 698.593 256.04 698.593C270.446 698.593 275.762 697.478 290.142 691.644C301.871 686.886 316.51 680.443 328.271 675.267C336.691 671.562 343.962 668.362 346.698 667.321C346.709 667.317 346.721 667.312 346.734 667.308C353.704 664.574 355.694 657.996 354.059 652.912C352.449 647.904 346.912 643.478 338.561 645.597V645.597ZM190.461 698.539V646.313H212.844V694.599V694.603V698.539H190.461Z" fill="#353941"/>
<path d="M240.229 691.039H240.226C238.166 691.039 236.497 692.71 236.497 694.769C236.497 696.83 238.169 698.5 240.229 698.5C242.29 698.5 243.96 696.83 243.96 694.769C243.96 692.71 242.29 691.039 240.229 691.039Z" fill="#353941"/>
</g>
<defs>
<clipPath id="clip0">
<rect width="411" height="731" fill="white"/>
</clipPath>
</defs>
</svg>
